<?xml version="1.0" standalone="no"?>
<!DOCTYPE svg PUBLIC "-//W3C//DTD SVG 20010904//EN"
 "http://www.w3.org/TR/2001/REC-SVG-20010904/DTD/svg10.dtd">
<svg version="1.0" xmlns="http://www.w3.org/2000/svg"
 width="700.000000pt" height="700.000000pt" viewBox="0 0 700.000000 700.000000"
 preserveAspectRatio="xMidYMid meet">
<metadata>
Created by potrace 1.11, written by Peter Selinger 2001-2013
</metadata>
<g transform="translate(0.000000,700.000000) scale(0.100000,-0.100000)"
fill="#000000" stroke="none">
<path d="M5610 5773 c-444 -80 -787 -382 -1061 -935 l-53 -107 -51 -11 c-186
-40 -449 -75 -645 -85 -218 -11 -601 -105 -945 -232 -822 -304 -1639 -865
-2218 -1523 -106 -121 -137 -164 -124 -176 3 -3 74 46 159 108 780 582 1640
1058 2293 1271 150 49 345 101 352 94 2 -3 -189 -316 -426 -697 l-429 -692
-44 -3 c-61 -4 -123 -38 -155 -86 -35 -53 -43 -140 -18 -192 13 -29 14 -40 5
-58 -7 -12 -145 -236 -308 -498 -162 -261 -295 -480 -296 -486 -4 -41 61 37
372 451 l354 469 63 6 c103 9 171 72 189 172 l7 39 257 125 c759 370 1205 584
1208 580 12 -12 -112 -308 -216 -518 -304 -606 -875 -1394 -1457 -2011 -83
-87 -96 -108 -69 -108 32 0 344 229 531 389 779 669 1340 1483 1643 2386 42
127 65 214 77 295 22 152 65 340 121 530 l45 155 132 49 c465 175 770 412 929
723 101 196 122 316 74 418 -25 55 -87 117 -139 139 -39 16 -120 26 -157 19z
m68 -209 c12 -4 29 -19 37 -35 36 -68 -51 -133 -105 -79 -29 29 -26 74 6 99
30 23 30 23 62 15z m-224 -253 l29 -30 -42 -50 c-54 -64 -137 -140 -215 -195
-68 -49 -215 -131 -222 -124 -13 14 176 248 253 314 53 45 151 114 162 114 4
0 20 -13 35 -29z m-1717 -833 c13 -12 23 -32 23 -45 0 -30 -42 -73 -70 -73
-26 0 -70 43 -70 68 0 11 9 31 21 46 25 32 64 34 96 4z m598 -185 c-13 -34
-103 -399 -116 -471 l-12 -72 -311 -187 c-171 -103 -491 -296 -712 -429 -220
-132 -411 -247 -424 -254 l-23 -12 21 28 c11 16 243 324 515 684 l494 655 69
8 c145 16 380 49 414 57 19 4 48 8 64 9 23 1 27 -2 21 -16z m105 -593 c24 -24
26 -57 4 -88 -23 -33 -88 -31 -110 3 -44 68 49 142 106 85z m-1987 -1051 c30
-16 37 -28 37 -66 0 -22 -7 -37 -22 -47 -48 -34 -108 -7 -108 47 0 37 7 49 35
65 25 14 32 15 58 1z"/>
</g>
</svg>
